<svg width="188" height="126" viewBox="0 0 188 126" fill="none" xmlns="http://www.w3.org/2000/svg">
<path d="M45.4333 53.25H80.1667V57H70.5H64.5V63V72.75H60.8333V63V57H54.8333H45.4333H41.1015L39.7382 61.1117C37.4192 68.1058 31.0985 72.75 23.5 72.75C13.527 72.75 6 65.2288 6 55.125C6 45.0212 13.527 37.5 23.5 37.5C31.0985 37.5 37.4192 42.1442 39.7382 49.1383L41.1015 53.25H45.4333ZM23.5 41.25C19.7769 41.25 16.2125 42.5247 13.567 45.1843C10.9243 47.841 9.66667 51.4085 9.66667 55.125C9.66667 58.8415 10.9243 62.409 13.567 65.0658C16.2125 67.7253 19.7769 69 23.5 69C27.2231 69 30.7875 67.7253 33.433 65.0658C36.0757 62.409 37.3333 58.8415 37.3333 55.125C37.3333 51.4085 36.0757 47.841 33.433 45.1843C30.7875 42.5247 27.2231 41.25 23.5 41.25ZM125.333 84.75C135.181 84.75 150.087 87.1769 162.367 92.0962C168.502 94.5543 173.607 97.4877 177.084 100.74C180.508 103.943 182 107.088 182 110.25V120H68.6667V110.25C68.6667 107.088 70.1586 103.943 73.5828 100.74C77.0597 97.4877 82.1643 94.5543 88.3 92.0962C100.58 87.1769 115.485 84.75 125.333 84.75ZM125.333 57C111.444 57 100 45.5413 100 31.5C100 17.4587 111.444 6 125.333 6C139.223 6 150.667 17.4587 150.667 31.5C150.667 45.5413 139.223 57 125.333 57Z" stroke="#474747" stroke-width="12"/>
</svg>
