<svg width="147" height="147" viewBox="0 0 147 147" fill="none" xmlns="http://www.w3.org/2000/svg">
<path fill-rule="evenodd" clip-rule="evenodd" d="M105.657 64.3124C105.657 69.7418 104.587 75.118 102.51 80.134C100.432 85.1501 97.3865 89.7078 93.5474 93.5469C89.7082 97.386 85.1506 100.431 80.1345 102.509C75.1184 104.587 69.7423 105.656 64.3129 105.656C58.8836 105.656 53.5074 104.587 48.4914 102.509C43.4753 100.431 38.9176 97.386 35.0785 93.5469C31.2394 89.7078 28.194 85.1501 26.1163 80.134C24.0386 75.118 22.9692 69.7418 22.9692 64.3124C22.9692 53.3474 27.325 42.8315 35.0785 35.078C42.8319 27.3245 53.3479 22.9687 64.3129 22.9687C75.278 22.9687 85.7939 27.3245 93.5474 35.078C101.301 42.8315 105.657 53.3474 105.657 64.3124ZM98.1229 107.861C87.0463 116.46 73.1087 120.515 59.1477 119.2C45.1867 117.885 32.2517 111.298 22.9761 100.781C13.7004 90.2645 8.78139 76.6081 9.22041 62.5921C9.65942 48.5761 15.4235 35.2543 25.3391 25.3386C35.2548 15.423 48.5766 9.65894 62.5926 9.21992C76.6085 8.7809 90.265 13.6999 100.782 22.9756C111.299 32.2512 117.885 45.1862 119.2 59.1472C120.516 73.1082 116.461 87.0458 107.862 98.1224L135.792 126.052C136.469 126.683 137.012 127.444 137.388 128.289C137.765 129.134 137.967 130.047 137.984 130.972C138 131.897 137.83 132.816 137.483 133.674C137.137 134.532 136.621 135.312 135.967 135.966C135.312 136.62 134.533 137.136 133.675 137.483C132.817 137.829 131.898 138 130.973 137.983C130.047 137.967 129.135 137.764 128.29 137.388C127.444 137.011 126.684 136.468 126.053 135.791L98.1229 107.861Z" fill="#474747"/>
</svg>
