<svg width="157" height="152" viewBox="0 0 157 152" fill="none" xmlns="http://www.w3.org/2000/svg">
<path d="M156.111 41.0732C155.659 40.4346 155.059 39.9134 154.362 39.5535C153.665 39.1936 152.891 39.0054 152.105 39.0049H47.4557L39.5342 11.848C36.4277 1.15441 29.0459 0 26.0183 0H4.89658C2.18934 0 0 2.17892 0 4.86765C0 7.55637 2.19181 9.73514 4.89643 9.73514H26.0157C26.6838 9.73514 28.7228 9.73514 30.1134 14.5121L57.3643 114.073C57.956 116.174 59.8816 117.625 62.0782 117.625H128.641C130.707 117.625 132.551 116.338 133.249 114.404L156.711 45.5193C157.251 44.0267 157.026 42.3649 156.111 41.0732H156.111ZM125.195 107.892H65.7947L50.208 48.7426H145.143L125.195 107.892ZM115.484 127.49C108.674 127.49 103.156 132.975 103.156 139.745C103.156 146.515 108.674 152 115.484 152C122.293 152 127.811 146.515 127.811 139.745C127.811 132.975 122.293 127.49 115.484 127.49ZM71.1053 127.49C64.2957 127.49 58.778 132.975 58.778 139.745C58.778 146.515 64.2957 152 71.1053 152C77.915 152 83.4327 146.515 83.4327 139.745C83.4327 132.975 77.915 127.49 71.1053 127.49Z" fill="#474747"/>
</svg>
