<svg width="34" height="23" viewBox="0 0 34 23" fill="none" xmlns="http://www.w3.org/2000/svg">
<path d="M33.3613 8.32791C33.4363 6.34261 32.9618 4.37217 31.9819 2.59955C31.3171 1.8722 30.3944 1.38135 29.3747 1.21254C25.157 0.86235 20.9218 0.718821 16.6873 0.782562C12.4683 0.715928 8.24835 0.854826 4.04543 1.19867C3.21449 1.33697 2.44552 1.69361 1.83234 2.22505C0.468108 3.37627 0.316526 5.34583 0.164945 7.01024C-0.0549816 10.0028 -0.0549816 13.0055 0.164945 15.9981C0.208798 16.9349 0.361234 17.8648 0.619689 18.7721C0.802459 19.4726 1.17224 20.1208 1.69592 20.6584C2.31326 21.218 3.10015 21.595 3.95448 21.7403C7.22245 22.1094 10.5153 22.2624 13.8073 22.198C19.1126 22.2674 23.7662 22.198 29.2686 21.8097C30.1439 21.6732 30.953 21.2958 31.5878 20.7278C32.0122 20.3393 32.3292 19.8638 32.5124 19.3408C33.0545 17.8187 33.3208 16.2257 33.3007 14.6249C33.3613 13.8482 33.3613 9.16011 33.3613 8.32791ZM13.2616 15.4571V6.87154L22.2352 11.1851C19.719 12.4612 16.3993 13.9037 13.2616 15.4571Z" fill="#3A3A3A"/>
</svg>
