<svg width="30" height="23" viewBox="0 0 30 23" fill="none" xmlns="http://www.w3.org/2000/svg">
<path d="M29.6027 3.31334C28.5091 3.75051 27.3495 4.03762 26.1621 4.16517C27.4136 3.48867 28.3503 2.424 28.7977 1.16955C27.6231 1.8013 26.3354 2.24404 24.9932 2.48353C24.0917 1.61174 22.8967 1.03357 21.5941 0.838898C20.2915 0.644224 18.9542 0.843955 17.7901 1.40704C16.6261 1.97013 15.7004 2.86502 15.1572 3.95259C14.6139 5.04016 14.4834 6.25948 14.786 7.42099C12.4041 7.3131 10.0739 6.75367 7.94677 5.77905C5.8196 4.80443 3.94301 3.43639 2.43881 1.76375C1.90638 2.59027 1.62658 3.52983 1.62808 4.48622C1.62808 6.36333 2.68518 8.02167 4.29233 8.99259C3.34123 8.96553 2.41107 8.73339 1.57938 8.31554V8.38285C1.57967 9.63301 2.05833 10.8446 2.9342 11.8122C3.81008 12.7798 5.02927 13.4439 6.38505 13.6919C5.50215 13.9081 4.57638 13.94 3.67783 13.7851C4.06009 14.8611 4.80513 15.8022 5.80864 16.4766C6.81216 17.151 8.02389 17.5248 9.27418 17.5458C8.03156 18.4278 6.60876 19.0798 5.08713 19.4645C3.56551 19.8493 1.9749 19.9592 0.40625 19.7879C3.14455 21.3795 6.33219 22.2245 9.58788 22.2217C20.6073 22.2217 26.6333 13.9715 26.6333 6.81643C26.6333 6.58341 26.6262 6.3478 26.6147 6.11737C27.7876 5.3512 28.8 4.4021 29.6041 3.31464L29.6027 3.31334Z" fill="#3A3A3A"/>
</svg>
