<svg width="25" height="23" viewBox="0 0 25 23" fill="none" xmlns="http://www.w3.org/2000/svg">
<path d="M12.9034 0C16.1899 0 16.6 0.0111108 17.8895 0.0666648C19.1777 0.122219 20.0547 0.30777 20.8264 0.583318C21.6248 0.865533 22.2973 1.24774 22.9699 1.8644C23.585 2.41982 24.0609 3.09168 24.3646 3.83323C24.6634 4.54099 24.8666 5.34764 24.9271 6.53094C24.9839 7.71535 24.9996 8.09201 24.9996 11.1108C24.9996 14.1296 24.9875 14.5063 24.9271 15.6907C24.8666 16.874 24.6634 17.6795 24.3646 18.3884C24.0618 19.1304 23.5857 19.8024 22.9699 20.3572C22.365 20.922 21.6336 21.3592 20.8264 21.6383C20.0559 21.9128 19.1777 22.0994 17.8895 22.155C16.6 22.2072 16.1899 22.2216 12.9034 22.2216C9.61683 22.2216 9.20677 22.2105 7.91731 22.155C6.62906 22.0994 5.75208 21.9128 4.98034 21.6383C4.1727 21.36 3.44112 20.9227 2.83688 20.3572C2.22167 19.8019 1.74572 19.13 1.44218 18.3884C1.1422 17.6806 0.940188 16.874 0.879706 15.6907C0.822854 14.5063 0.807129 14.1296 0.807129 11.1108C0.807129 8.09201 0.819225 7.71535 0.879706 6.53094C0.940188 5.34653 1.1422 4.5421 1.44218 3.83323C1.74487 3.09123 2.22094 2.41918 2.83688 1.8644C3.4413 1.29911 4.17283 0.861899 4.98034 0.583318C5.75208 0.30777 6.62785 0.122219 7.91731 0.0666648C9.20677 0.014444 9.61683 0 12.9034 0ZM12.9034 5.55541C11.2993 5.55541 9.76096 6.14071 8.62671 7.18255C7.49247 8.22439 6.85526 9.63743 6.85526 11.1108C6.85526 12.5842 7.49247 13.9972 8.62671 15.0391C9.76096 16.0809 11.2993 16.6662 12.9034 16.6662C14.5074 16.6662 16.0458 16.0809 17.1801 15.0391C18.3143 13.9972 18.9515 12.5842 18.9515 11.1108C18.9515 9.63743 18.3143 8.22439 17.1801 7.18255C16.0458 6.14071 14.5074 5.55541 12.9034 5.55541ZM20.766 5.27764C20.766 4.90929 20.6066 4.55603 20.3231 4.29557C20.0395 4.03511 19.6549 3.88879 19.2539 3.88879C18.8529 3.88879 18.4683 4.03511 18.1847 4.29557C17.9012 4.55603 17.7419 4.90929 17.7419 5.27764C17.7419 5.64599 17.9012 5.99925 18.1847 6.25971C18.4683 6.52017 18.8529 6.66649 19.2539 6.66649C19.6549 6.66649 20.0395 6.52017 20.3231 6.25971C20.6066 5.99925 20.766 5.64599 20.766 5.27764ZM12.9034 7.77757C13.8658 7.77757 14.7888 8.12875 15.4694 8.75386C16.1499 9.37896 16.5323 10.2268 16.5323 11.1108C16.5323 11.9949 16.1499 12.8427 15.4694 13.4678C14.7888 14.0929 13.8658 14.4441 12.9034 14.4441C11.9409 14.4441 11.0179 14.0929 10.3374 13.4678C9.65683 12.8427 9.27451 11.9949 9.27451 11.1108C9.27451 10.2268 9.65683 9.37896 10.3374 8.75386C11.0179 8.12875 11.9409 7.77757 12.9034 7.77757Z" fill="#3A3A3A"/>
</svg>
