<svg width="156" height="23" viewBox="0 0 156 23" fill="none" xmlns="http://www.w3.org/2000/svg">
<path d="M143.903 0C147.19 0 147.6 0.0111108 148.889 0.0666648C150.178 0.122219 151.055 0.30777 151.826 0.583318C152.625 0.865533 153.297 1.24774 153.97 1.8644C154.585 2.41982 155.061 3.09168 155.365 3.83323C155.663 4.54099 155.867 5.34764 155.927 6.53094C155.984 7.71535 156 8.09201 156 11.1108C156 14.1296 155.988 14.5063 155.927 15.6907C155.867 16.874 155.663 17.6795 155.365 18.3884C155.062 19.1304 154.586 19.8024 153.97 20.3572C153.365 20.922 152.634 21.3592 151.826 21.6383C151.056 21.9128 150.178 22.0994 148.889 22.155C147.6 22.2072 147.19 22.2216 143.903 22.2216C140.617 22.2216 140.207 22.2105 138.917 22.155C137.629 22.0994 136.752 21.9128 135.98 21.6383C135.173 21.36 134.441 20.9227 133.837 20.3572C133.222 19.8019 132.746 19.13 132.442 18.3884C132.142 17.6806 131.94 16.874 131.88 15.6907C131.823 14.5063 131.807 14.1296 131.807 11.1108C131.807 8.09201 131.819 7.71535 131.88 6.53094C131.94 5.34653 132.142 4.5421 132.442 3.83323C132.745 3.09123 133.221 2.41918 133.837 1.8644C134.441 1.29911 135.173 0.861899 135.98 0.583318C136.752 0.30777 137.628 0.122219 138.917 0.0666648C140.207 0.014444 140.617 0 143.903 0ZM143.903 5.55541C142.299 5.55541 140.761 6.14071 139.627 7.18255C138.492 8.22439 137.855 9.63743 137.855 11.1108C137.855 12.5842 138.492 13.9972 139.627 15.0391C140.761 16.0809 142.299 16.6662 143.903 16.6662C145.507 16.6662 147.046 16.0809 148.18 15.0391C149.314 13.9972 149.952 12.5842 149.952 11.1108C149.952 9.63743 149.314 8.22439 148.18 7.18255C147.046 6.14071 145.507 5.55541 143.903 5.55541ZM151.766 5.27764C151.766 4.90929 151.607 4.55603 151.323 4.29557C151.04 4.03511 150.655 3.88879 150.254 3.88879C149.853 3.88879 149.468 4.03511 149.185 4.29557C148.901 4.55603 148.742 4.90929 148.742 5.27764C148.742 5.64599 148.901 5.99925 149.185 6.25971C149.468 6.52017 149.853 6.66649 150.254 6.66649C150.655 6.66649 151.04 6.52017 151.323 6.25971C151.607 5.99925 151.766 5.64599 151.766 5.27764ZM143.903 7.77757C144.866 7.77757 145.789 8.12875 146.469 8.75386C147.15 9.37896 147.532 10.2268 147.532 11.1108C147.532 11.9949 147.15 12.8427 146.469 13.4678C145.789 14.0929 144.866 14.4441 143.903 14.4441C142.941 14.4441 142.018 14.0929 141.337 13.4678C140.657 12.8427 140.275 11.9949 140.275 11.1108C140.275 10.2268 140.657 9.37896 141.337 8.75386C142.018 8.12875 142.941 7.77757 143.903 7.77757Z" fill="#3A3A3A"/>
<path d="M97.6027 3.31334C96.5091 3.75051 95.3495 4.03762 94.1621 4.16517C95.4136 3.48867 96.3503 2.424 96.7977 1.16955C95.6231 1.8013 94.3354 2.24404 92.9932 2.48353C92.0917 1.61174 90.8967 1.03357 89.5941 0.838898C88.2915 0.644224 86.9542 0.843955 85.7901 1.40704C84.6261 1.97013 83.7004 2.86502 83.1572 3.95259C82.6139 5.04016 82.4834 6.25948 82.786 7.42099C80.4041 7.3131 78.0739 6.75367 75.9468 5.77905C73.8196 4.80443 71.943 3.43639 70.4388 1.76375C69.9064 2.59027 69.6266 3.52983 69.6281 4.48622C69.6281 6.36333 70.6852 8.02167 72.2923 8.99259C71.3412 8.96553 70.4111 8.73339 69.5794 8.31554V8.38285C69.5797 9.63301 70.0583 10.8446 70.9342 11.8122C71.8101 12.7798 73.0293 13.4439 74.385 13.6919C73.5021 13.9081 72.5764 13.94 71.6778 13.7851C72.0601 14.8611 72.8051 15.8022 73.8086 16.4766C74.8122 17.151 76.0239 17.5248 77.2742 17.5458C76.0316 18.4278 74.6088 19.0798 73.0871 19.4645C71.5655 19.8493 69.9749 19.9592 68.4062 19.7879C71.1445 21.3795 74.3322 22.2245 77.5879 22.2217C88.6073 22.2217 94.6333 13.9715 94.6333 6.81643C94.6333 6.58341 94.6262 6.3478 94.6147 6.11737C95.7876 5.3512 96.8 4.4021 97.6041 3.31464L97.6027 3.31334Z" fill="#3A3A3A"/>
<path d="M33.3613 8.32791C33.4363 6.34261 32.9618 4.37217 31.9819 2.59955C31.3171 1.8722 30.3944 1.38135 29.3747 1.21254C25.157 0.86235 20.9218 0.718821 16.6873 0.782562C12.4683 0.715928 8.24835 0.854826 4.04543 1.19867C3.21449 1.33697 2.44552 1.69361 1.83234 2.22505C0.468108 3.37627 0.316526 5.34583 0.164945 7.01024C-0.0549816 10.0028 -0.0549816 13.0055 0.164945 15.9981C0.208798 16.9349 0.361234 17.8648 0.619689 18.7721C0.802459 19.4726 1.17224 20.1208 1.69592 20.6584C2.31326 21.218 3.10015 21.595 3.95448 21.7403C7.22245 22.1094 10.5153 22.2624 13.8073 22.198C19.1126 22.2674 23.7662 22.198 29.2686 21.8097C30.1439 21.6732 30.953 21.2958 31.5878 20.7278C32.0122 20.3393 32.3292 19.8638 32.5124 19.3408C33.0545 17.8187 33.3208 16.2257 33.3007 14.6249C33.3613 13.8482 33.3613 9.16011 33.3613 8.32791ZM13.2616 15.4571V6.87154L22.2352 11.1851C19.719 12.4612 16.3993 13.9037 13.2616 15.4571Z" fill="#3A3A3A"/>
</svg>
