<svg width="25" height="23" viewBox="0 0 25 23" fill="none" xmlns="http://www.w3.org/2000/svg">
<path d="M12.9039 0C16.1904 0 16.6005 0.0111108 17.8899 0.0666648C19.1782 0.122219 20.0552 0.30777 20.8269 0.583318C21.6253 0.865533 22.2978 1.24774 22.9704 1.8644C23.5855 2.41982 24.0614 3.09168 24.3651 3.83323C24.6639 4.54099 24.8671 5.34764 24.9276 6.53094C24.9844 7.71535 25.0001 8.09201 25.0001 11.1108C25.0001 14.1296 24.988 14.5063 24.9276 15.6907C24.8671 16.874 24.6639 17.6795 24.3651 18.3884C24.0623 19.1304 23.5862 19.8024 22.9704 20.3572C22.3655 20.922 21.6341 21.3592 20.8269 21.6383C20.0564 21.9128 19.1782 22.0994 17.8899 22.155C16.6005 22.2072 16.1904 22.2216 12.9039 22.2216C9.61732 22.2216 9.20726 22.2105 7.9178 22.155C6.62954 22.0994 5.75257 21.9128 4.98083 21.6383C4.17319 21.36 3.44161 20.9227 2.83737 20.3572C2.22216 19.8019 1.7462 19.13 1.44267 18.3884C1.14268 17.6806 0.940676 16.874 0.880195 15.6907C0.823342 14.5063 0.807617 14.1296 0.807617 11.1108C0.807617 8.09201 0.819713 7.71535 0.880195 6.53094C0.940676 5.34653 1.14268 4.5421 1.44267 3.83323C1.74536 3.09123 2.22143 2.41918 2.83737 1.8644C3.44178 1.29911 4.17331 0.861899 4.98083 0.583318C5.75257 0.30777 6.62834 0.122219 7.9178 0.0666648C9.20726 0.014444 9.61732 0 12.9039 0ZM12.9039 5.55541C11.2998 5.55541 9.76145 6.14071 8.6272 7.18255C7.49296 8.22439 6.85575 9.63743 6.85575 11.1108C6.85575 12.5842 7.49296 13.9972 8.6272 15.0391C9.76145 16.0809 11.2998 16.6662 12.9039 16.6662C14.5079 16.6662 16.0463 16.0809 17.1805 15.0391C18.3148 13.9972 18.952 12.5842 18.952 11.1108C18.952 9.63743 18.3148 8.22439 17.1805 7.18255C16.0463 6.14071 14.5079 5.55541 12.9039 5.55541ZM20.7664 5.27764C20.7664 4.90929 20.6071 4.55603 20.3236 4.29557C20.04 4.03511 19.6554 3.88879 19.2544 3.88879C18.8534 3.88879 18.4688 4.03511 18.1852 4.29557C17.9017 4.55603 17.7424 4.90929 17.7424 5.27764C17.7424 5.64599 17.9017 5.99925 18.1852 6.25971C18.4688 6.52017 18.8534 6.66649 19.2544 6.66649C19.6554 6.66649 20.04 6.52017 20.3236 6.25971C20.6071 5.99925 20.7664 5.64599 20.7664 5.27764ZM12.9039 7.77757C13.8663 7.77757 14.7893 8.12875 15.4699 8.75386C16.1504 9.37896 16.5328 10.2268 16.5328 11.1108C16.5328 11.9949 16.1504 12.8427 15.4699 13.4678C14.7893 14.0929 13.8663 14.4441 12.9039 14.4441C11.9414 14.4441 11.0184 14.0929 10.3379 13.4678C9.65732 12.8427 9.275 11.9949 9.275 11.1108C9.275 10.2268 9.65732 9.37896 10.3379 8.75386C11.0184 8.12875 11.9414 7.77757 12.9039 7.77757Z" fill="#9E9E9E"/>
</svg>
