<svg width="24" height="34" viewBox="0 0 24 34" fill="none" xmlns="http://www.w3.org/2000/svg">
<path d="M11.9947 4.80591C10.8407 4.80591 9.71268 5.1481 8.7532 5.7892C7.79372 6.43031 7.04589 7.34154 6.60429 8.40766C6.16268 9.47379 6.04714 10.6469 6.27227 11.7787C6.49739 12.9105 7.05308 13.9501 7.86905 14.7661C8.68503 15.5821 9.72464 16.1377 10.8564 16.3629C11.9882 16.588 13.1614 16.4725 14.2275 16.0309C15.2936 15.5892 16.2048 14.8414 16.8459 13.8819C17.487 12.9225 17.8292 11.7944 17.8292 10.6404C17.8292 9.09303 17.2145 7.60899 16.1203 6.5148C15.0261 5.42062 13.5421 4.80591 11.9947 4.80591ZM11.9947 14.4385C11.2435 14.4385 10.5092 14.2157 9.88461 13.7984C9.26003 13.3811 8.77322 12.7879 8.48575 12.0939C8.19829 11.3999 8.12308 10.6362 8.26962 9.89948C8.41617 9.16273 8.7779 8.48598 9.30907 7.95482C9.84023 7.42365 10.517 7.06192 11.2537 6.91537C11.9905 6.76883 12.7541 6.84404 13.4481 7.1315C14.1421 7.41897 14.7353 7.90577 15.1527 8.53036C15.57 9.15495 15.7927 9.88926 15.7927 10.6404C15.79 11.646 15.3887 12.6094 14.6767 13.3195C13.9647 14.0296 13.0002 14.4283 11.9947 14.4283V14.4385Z" fill="white"/>
<path d="M11.9949 1.00798e-09C8.82328 0.00264904 5.78157 1.26027 3.53413 3.49817C1.28668 5.73608 0.0161395 8.77241 0 11.944C0 16.6992 2.6678 20.6805 4.62283 23.5825L4.97921 24.112C6.92434 26.9311 9.01102 29.6499 11.2312 32.258L12.0051 33.1642L12.779 32.258C14.9989 29.6497 17.0855 26.9309 19.031 24.112L19.3874 23.5723C21.3322 20.6703 24 16.6992 24 11.944C23.9839 8.77065 22.7119 5.73278 20.4623 3.49458C18.2126 1.25639 15.1683 -4.10923e-05 11.9949 1.00798e-09ZM17.6869 22.4014L17.3203 22.941C15.5689 25.5681 13.2473 28.5108 11.9949 29.9669C10.7934 28.5108 8.42087 25.5681 6.6695 22.941L6.31311 22.4014C4.51082 19.7132 2.03649 16.0373 2.03649 11.9033C2.03649 10.5955 2.29407 9.30055 2.79453 8.09234C3.29498 6.88413 4.02852 5.78632 4.95324 4.8616C5.87797 3.93687 6.97577 3.20334 8.18398 2.70288C9.3922 2.20243 10.6872 1.94484 11.9949 1.94484C13.3027 1.94484 14.5976 2.20243 15.8058 2.70288C17.014 3.20334 18.1119 3.93687 19.0366 4.8616C19.9613 5.78632 20.6948 6.88413 21.1953 8.09234C21.6957 9.30055 21.9533 10.5955 21.9533 11.9033C21.9533 16.0781 19.4892 19.7539 17.6869 22.4014Z" fill="white"/>
</svg>
