<svg width="52" height="52" viewBox="0 0 52 52" fill="none" xmlns="http://www.w3.org/2000/svg">
<path d="M5.63365 30.875C4.8031 30.0445 4.38782 29.0153 4.38782 27.7875C4.38782 26.5598 4.8031 25.5306 5.63365 24.7L24.7003 5.63339C25.0975 5.23616 25.567 4.91983 26.1087 4.68439C26.6503 4.44894 27.2281 4.33194 27.842 4.33339L43.3337 4.33339C44.5253 4.33339 45.5458 4.75805 46.3952 5.60739C47.2445 6.45672 47.6684 7.4765 47.667 8.66672L47.667 24.1584C47.667 24.7723 47.5493 25.3501 47.3138 25.8917C47.0784 26.4334 46.7628 26.9028 46.367 27.3001L27.2462 46.3667C26.4156 47.1973 25.3951 47.6126 24.1847 47.6126C22.9742 47.6126 21.9544 47.1973 21.1253 46.3667L5.63365 30.875ZM34.667 14.0834C34.667 14.9862 34.9833 15.7539 35.616 16.3866C36.2487 17.0192 37.0157 17.3348 37.917 17.3334C38.8198 17.3334 39.5875 17.0171 40.2202 16.3844C40.8528 15.7517 41.1684 14.9847 41.167 14.0834C41.167 13.1806 40.8507 12.4129 40.218 11.7802C39.5853 11.1476 38.8183 10.8319 37.917 10.8334C37.0142 10.8334 36.2465 11.1497 35.6138 11.7824C34.9812 12.4151 34.6655 13.1821 34.667 14.0834Z" fill="#474747"/>
</svg>
