<svg width="28" height="28" viewBox="0 0 28 28" fill="none" xmlns="http://www.w3.org/2000/svg">
<path d="M24.7704 28H24.5874C3.43361 26.7831 0.430099 8.92769 0.0102537 3.47846C-0.0235759 3.05478 0.0264971 2.62858 0.157603 2.22429C0.288709 1.82 0.498272 1.44556 0.774284 1.12243C1.0503 0.799293 1.38733 0.533818 1.76608 0.341212C2.14483 0.148606 2.55785 0.0326542 2.98147 1.00971e-06H8.91313C9.34434 -0.000416582 9.76574 0.128704 10.1227 0.370637C10.4798 0.61257 10.7559 0.956168 10.9155 1.35692L12.5518 5.38462C12.7093 5.77613 12.7484 6.20532 12.6642 6.61887C12.58 7.03242 12.3762 7.41211 12.0781 7.71077L9.78512 10.0262C10.1433 12.0623 11.1181 13.9393 12.5775 15.4032C14.037 16.867 15.9107 17.8471 17.9452 18.2108L20.2812 15.8954C20.5843 15.6005 20.9674 15.4013 21.3828 15.3228C21.7983 15.2443 22.2276 15.2899 22.6173 15.4538L26.6758 17.08C27.0704 17.2446 27.407 17.5231 27.6428 17.8798C27.8787 18.2365 28.003 18.6554 27.9999 19.0831V24.7692C27.9999 25.6261 27.6597 26.4478 27.054 27.0537C26.4484 27.6596 25.6269 28 24.7704 28ZM3.23983 2.15385C2.95432 2.15385 2.6805 2.26731 2.47861 2.46927C2.27673 2.67123 2.16331 2.94515 2.16331 3.23077V3.31692C2.65851 9.69231 5.83426 24.7692 24.7058 25.8462C24.8472 25.8549 24.989 25.8356 25.1229 25.7894C25.2569 25.7433 25.3804 25.6711 25.4864 25.577C25.5925 25.483 25.6789 25.3689 25.7407 25.2414C25.8026 25.1139 25.8387 24.9754 25.8469 24.8338V19.0831L21.7884 17.4569L18.6988 20.5262L18.182 20.4615C8.81624 19.2877 7.54594 9.91846 7.54594 9.82154L7.48135 9.30462L10.5387 6.21385L8.92389 2.15385H3.23983Z" fill="white"/>
</svg>
