<svg width="30" height="23" viewBox="0 0 30 23" fill="none" xmlns="http://www.w3.org/2000/svg">
<path d="M29.6027 3.31325C28.5091 3.75042 27.3495 4.03753 26.1621 4.16508C27.4136 3.48858 28.3503 2.42391 28.7977 1.16946C27.6231 1.8012 26.3354 2.24394 24.9932 2.48344C24.0917 1.61165 22.8967 1.03348 21.5941 0.838806C20.2915 0.644132 18.9542 0.843863 17.7901 1.40695C16.6261 1.97003 15.7004 2.86492 15.1572 3.9525C14.6139 5.04007 14.4834 6.25939 14.786 7.4209C12.4041 7.313 10.0739 6.75358 7.94677 5.77896C5.8196 4.80434 3.94301 3.4363 2.43881 1.76366C1.90638 2.59018 1.62658 3.52974 1.62808 4.48613C1.62808 6.36324 2.68518 8.02158 4.29233 8.9925C3.34123 8.96544 2.41107 8.7333 1.57938 8.31544V8.38276C1.57967 9.63292 2.05833 10.8445 2.9342 11.8121C3.81008 12.7797 5.02927 13.4438 6.38505 13.6918C5.50215 13.908 4.57638 13.9399 3.67783 13.785C4.06009 14.8611 4.80513 15.8022 5.80864 16.4765C6.81216 17.1509 8.02389 17.5247 9.27418 17.5457C8.03156 18.4277 6.60876 19.0797 5.08713 19.4644C3.56551 19.8492 1.9749 19.9591 0.40625 19.7879C3.14455 21.3794 6.33219 22.2244 9.58788 22.2216C20.6073 22.2216 26.6333 13.9714 26.6333 6.81634C26.6333 6.58332 26.6262 6.34771 26.6147 6.11728C27.7876 5.35111 28.8 4.40201 29.6041 3.31455L29.6027 3.31325Z" fill="#9E9E9E"/>
</svg>
