<svg width="34" height="23" viewBox="0 0 34 23" fill="none" xmlns="http://www.w3.org/2000/svg">
<path d="M33.3613 8.32781C33.4363 6.34252 32.9618 4.37208 31.9819 2.59946C31.3171 1.8721 30.3944 1.38126 29.3747 1.21244C25.157 0.862259 20.9218 0.718729 16.6873 0.782471C12.4683 0.715836 8.24835 0.854734 4.04543 1.19857C3.21449 1.33688 2.44552 1.69352 1.83234 2.22496C0.468108 3.37618 0.316526 5.34574 0.164945 7.01015C-0.0549816 10.0027 -0.0549816 13.0054 0.164945 15.998C0.208798 16.9348 0.361234 17.8647 0.619689 18.772C0.802459 19.4725 1.17224 20.1207 1.69592 20.6583C2.31326 21.2179 3.10015 21.5949 3.95448 21.7402C7.22245 22.1093 10.5153 22.2623 13.8073 22.1979C19.1126 22.2673 23.7662 22.1979 29.2686 21.8096C30.1439 21.6731 30.953 21.2957 31.5878 20.7277C32.0122 20.3392 32.3292 19.8637 32.5124 19.3407C33.0545 17.8186 33.3208 16.2256 33.3007 14.6248C33.3613 13.8481 33.3613 9.16002 33.3613 8.32781ZM13.2616 15.4571V6.87145L22.2352 11.1851C19.719 12.4611 16.3993 13.9036 13.2616 15.4571Z" fill="#9E9E9E"/>
</svg>
